<?xml version="1.0" encoding="UTF-8"?>
<svg id="Layer_1" data-name="Layer 1" xmlns="http://www.w3.org/2000/svg" version="1.1" viewBox="0 0 1701 1701">
  <defs>
    <style>
      .cls-1 {
        fill: #c8c8c8;
        stroke-width: 0px;
      }
    </style>
  </defs>
  <g>
    <path class="cls-1" d="M-1564.7,990.3c-23.8,0-44.3-4.9-61.5-14.6-17.2-9.7-30.4-23.5-39.6-41.4-9.3-17.9-13.9-39-13.9-63.5s4.6-44.8,13.9-62.8c9.3-18,22.3-32,39.2-42.1,16.9-10.1,36.6-15.1,59.4-15.1s29.6,2.4,42.8,7.3c13.2,4.9,24.8,12.2,34.7,22,9.9,9.8,17.6,22,23.2,36.8,5.5,14.7,8.3,32,8.3,51.7v17.7h-195.7v-39.8h135.2c0-9.3-2-17.5-6-24.6-4-7.1-9.6-12.8-16.7-16.8-7.1-4.1-15.3-6.1-24.7-6.1s-18.4,2.2-25.9,6.7c-7.5,4.5-13.4,10.5-17.6,18-4.2,7.5-6.4,15.8-6.5,25v37.9c0,11.5,2.1,21.4,6.4,29.7,4.3,8.4,10.3,14.8,18.2,19.3,7.8,4.5,17.2,6.8,27.9,6.8s13.7-1,19.6-3c5.9-2,11-5,15.2-9.1,4.2-4,7.4-9,9.7-14.8l59.5,3.9c-3,14.3-9.2,26.7-18.5,37.4-9.3,10.6-21.3,18.9-35.9,24.8-14.6,5.9-31.5,8.8-50.6,8.8Z"/>
    <path class="cls-1" d="M-1330.9,989.6c-17.6,0-33.5-4.6-47.8-13.7-14.2-9.1-25.5-22.5-33.8-40.3-8.3-17.8-12.5-39.6-12.5-65.4s4.3-48.7,12.8-66.3c8.6-17.7,19.9-30.9,34.2-39.7,14.2-8.8,29.9-13.2,46.9-13.2s23.8,2.2,32.5,6.6c8.7,4.4,15.7,9.8,21.1,16.3,5.4,6.5,9.5,12.9,12.3,19.1h2v-116.2h64.1v309.1h-63.4v-37.1h-2.7c-3,6.4-7.3,12.8-12.8,19.1-5.5,6.3-12.6,11.5-21.3,15.6-8.7,4.1-19.3,6.2-31.8,6.2ZM-1310.5,938.4c10.4,0,19.1-2.8,26.3-8.5,7.2-5.7,12.7-13.7,16.6-23.9,3.9-10.3,5.8-22.3,5.8-36.1s-1.9-25.8-5.7-35.9c-3.8-10.2-9.4-18-16.6-23.5-7.2-5.5-16-8.3-26.4-8.3s-19.5,2.9-26.7,8.6c-7.2,5.7-12.7,13.7-16.5,23.8-3.7,10.2-5.6,21.9-5.6,35.3s1.9,25.4,5.7,35.7c3.8,10.3,9.3,18.4,16.5,24.1,7.2,5.8,16.1,8.7,26.6,8.7Z"/>
    <path class="cls-1" d="M-1040.7,990.3c-23.8,0-44.3-4.9-61.5-14.6-17.2-9.7-30.4-23.5-39.6-41.4-9.3-17.9-13.9-39-13.9-63.5s4.6-44.8,13.9-62.8c9.3-18,22.3-32,39.2-42.1,16.9-10.1,36.6-15.1,59.4-15.1s29.6,2.4,42.8,7.3c13.2,4.9,24.8,12.2,34.7,22,9.9,9.8,17.6,22,23.2,36.8,5.5,14.7,8.3,32,8.3,51.7v17.7h-195.7v-39.8h135.2c0-9.3-2-17.5-6-24.6-4-7.1-9.6-12.8-16.7-16.8-7.1-4.1-15.3-6.1-24.7-6.1s-18.4,2.2-25.9,6.7c-7.5,4.5-13.4,10.5-17.6,18-4.2,7.5-6.4,15.8-6.5,25v37.9c0,11.5,2.1,21.4,6.4,29.7,4.3,8.4,10.3,14.8,18.2,19.3,7.8,4.5,17.2,6.8,27.9,6.8s13.7-1,19.6-3c5.9-2,11-5,15.2-9.1,4.2-4,7.4-9,9.7-14.8l59.5,3.9c-3,14.3-9.2,26.7-18.5,37.4-9.3,10.6-21.3,18.9-35.9,24.8-14.6,5.9-31.5,8.8-50.6,8.8Z"/>
    <path class="cls-1" d="M-828,851.8v134h-64.3v-231.8h61.3v40.9h2.7c5.1-13.5,13.7-24.2,25.8-32.1,12.1-7.9,26.7-11.8,43.9-11.8s30.1,3.5,42.1,10.6c12,7,21.3,17.1,27.9,30.1,6.6,13,10,28.6,10,46.6v147.6h-64.3v-136.1c0-14.2-3.5-25.3-10.9-33.3-7.3-8-17.5-12-30.3-12s-16.3,1.9-22.9,5.6c-6.6,3.7-11.7,9.1-15.4,16.2-3.7,7.1-5.6,15.6-5.7,25.6Z"/>
    <path class="cls-1" d="M-483.6,833.4v51h-141v-51h141Z"/>
    <path class="cls-1" d="M-280.2,887.1v-133.1h64.3v231.8h-61.7v-42.1h-2.4c-5.2,13.6-13.9,24.5-26,32.8-12.1,8.3-26.9,12.4-44.3,12.4s-29.1-3.5-40.9-10.6c-11.8-7-21-17.1-27.5-30-6.6-13-9.9-28.5-10-46.6v-147.6h64.3v136.1c0,13.7,3.8,24.5,11,32.4,7.2,8,17,11.9,29.1,11.9s15-1.8,21.7-5.4c6.7-3.6,12.2-8.9,16.4-15.9,4.2-7,6.2-15.7,6.1-26.1Z"/>
    <path class="cls-1" d="M-132.3,724.1c-9.6,0-17.7-3.2-24.5-9.5-6.8-6.3-10.2-14-10.2-22.9s3.4-16.6,10.3-23c6.8-6.4,15-9.6,24.4-9.6s17.7,3.2,24.5,9.5c6.8,6.3,10.2,14,10.2,22.9s-3.4,16.6-10.2,23c-6.8,6.4-15,9.6-24.5,9.6ZM-164.6,985.8v-231.8h64.3v231.8h-64.3Z"/>
  </g>
  <g>
    <path class="cls-1" d="M156.3,990.3c-23.8,0-44.3-4.9-61.5-14.6-17.2-9.7-30.4-23.5-39.6-41.4-9.3-17.9-13.9-39-13.9-63.5s4.6-44.8,13.9-62.8c9.3-18,22.3-32,39.2-42.1,16.9-10.1,36.6-15.1,59.4-15.1s29.6,2.4,42.8,7.3c13.2,4.9,24.8,12.2,34.7,22,9.9,9.8,17.6,22,23.2,36.8,5.5,14.7,8.3,32,8.3,51.7v17.7H67v-39.8h135.2c0-9.3-2-17.5-6-24.6-4-7.1-9.6-12.8-16.7-16.8-7.1-4.1-15.3-6.1-24.7-6.1s-18.4,2.2-25.9,6.7c-7.5,4.5-13.4,10.5-17.6,18-4.2,7.5-6.4,15.8-6.5,25v37.9c0,11.5,2.1,21.4,6.4,29.7,4.3,8.4,10.3,14.8,18.2,19.3,7.8,4.5,17.2,6.8,27.9,6.8s13.7-1,19.6-3c5.9-2,11-5,15.2-9.1,4.2-4,7.4-9,9.7-14.8l59.5,3.9c-3,14.3-9.2,26.7-18.5,37.4-9.3,10.6-21.3,18.9-35.9,24.8-14.6,5.9-31.5,8.8-50.6,8.8Z"/>
    <path class="cls-1" d="M390.1,989.6c-17.6,0-33.5-4.6-47.8-13.7-14.2-9.1-25.5-22.5-33.8-40.3-8.3-17.8-12.5-39.6-12.5-65.4s4.3-48.7,12.8-66.3c8.6-17.7,19.9-30.9,34.2-39.7,14.2-8.8,29.9-13.2,46.9-13.2s23.8,2.2,32.5,6.6c8.7,4.4,15.7,9.8,21.1,16.3,5.4,6.5,9.5,12.9,12.3,19.1h2v-116.2h64.1v309.1h-63.4v-37.1h-2.7c-3,6.4-7.3,12.8-12.8,19.1-5.5,6.3-12.6,11.5-21.3,15.6-8.7,4.1-19.3,6.2-31.8,6.2ZM410.5,938.4c10.4,0,19.1-2.8,26.3-8.5,7.2-5.7,12.7-13.7,16.6-23.9,3.9-10.3,5.8-22.3,5.8-36.1s-1.9-25.8-5.7-35.9c-3.8-10.2-9.4-18-16.6-23.5-7.2-5.5-16-8.3-26.4-8.3s-19.5,2.9-26.7,8.6c-7.2,5.7-12.7,13.7-16.5,23.8-3.7,10.2-5.6,21.9-5.6,35.3s1.9,25.4,5.7,35.7c3.8,10.3,9.3,18.4,16.5,24.1,7.2,5.8,16.1,8.7,26.6,8.7Z"/>
    <path class="cls-1" d="M680.3,990.3c-23.8,0-44.3-4.9-61.5-14.6-17.2-9.7-30.4-23.5-39.6-41.4-9.3-17.9-13.9-39-13.9-63.5s4.6-44.8,13.9-62.8c9.3-18,22.3-32,39.2-42.1,16.9-10.1,36.6-15.1,59.4-15.1s29.6,2.4,42.8,7.3c13.2,4.9,24.8,12.2,34.7,22,9.9,9.8,17.6,22,23.2,36.8,5.5,14.7,8.3,32,8.3,51.7v17.7h-195.7v-39.8h135.2c0-9.3-2-17.5-6-24.6-4-7.1-9.6-12.8-16.7-16.8-7.1-4.1-15.3-6.1-24.7-6.1s-18.4,2.2-25.9,6.7c-7.5,4.5-13.4,10.5-17.6,18-4.2,7.5-6.4,15.8-6.5,25v37.9c0,11.5,2.1,21.4,6.4,29.7,4.3,8.4,10.3,14.8,18.2,19.3,7.8,4.5,17.2,6.8,27.9,6.8s13.7-1,19.6-3c5.9-2,11-5,15.2-9.1,4.2-4,7.4-9,9.7-14.8l59.5,3.9c-3,14.3-9.2,26.7-18.5,37.4-9.3,10.6-21.3,18.9-35.9,24.8-14.6,5.9-31.5,8.8-50.6,8.8Z"/>
    <path class="cls-1" d="M893,851.8v134h-64.3v-231.8h61.3v40.9h2.7c5.1-13.5,13.7-24.2,25.8-32.1,12.1-7.9,26.7-11.8,43.9-11.8s30.1,3.5,42.1,10.6c12,7,21.3,17.1,27.9,30.1,6.6,13,10,28.6,10,46.6v147.6h-64.3v-136.1c0-14.2-3.5-25.3-10.9-33.3-7.3-8-17.5-12-30.3-12s-16.3,1.9-22.9,5.6c-6.6,3.7-11.7,9.1-15.4,16.2-3.7,7.1-5.6,15.6-5.7,25.6Z"/>
    <path class="cls-1" d="M1237.4,833.4v51h-141v-51h141Z"/>
    <path class="cls-1" d="M1440.8,887.1v-133.1h64.3v231.8h-61.7v-42.1h-2.4c-5.2,13.6-13.9,24.5-26,32.8-12.1,8.3-26.9,12.4-44.3,12.4s-29.1-3.5-40.9-10.6c-11.8-7-21-17.1-27.5-30-6.6-13-9.9-28.5-10-46.6v-147.6h64.3v136.1c0,13.7,3.8,24.5,11,32.4,7.2,8,17,11.9,29.1,11.9s15-1.8,21.7-5.4c6.7-3.6,12.2-8.9,16.4-15.9,4.2-7,6.2-15.7,6.1-26.1Z"/>
    <path class="cls-1" d="M1588.7,724.1c-9.6,0-17.7-3.2-24.5-9.5-6.8-6.3-10.2-14-10.2-22.9s3.4-16.6,10.3-23c6.8-6.4,15-9.6,24.4-9.6s17.7,3.2,24.5,9.5c6.8,6.3,10.2,14,10.2,22.9s-3.4,16.6-10.2,23c-6.8,6.4-15,9.6-24.5,9.6ZM1556.4,985.8v-231.8h64.3v231.8h-64.3Z"/>
  </g>
</svg>